<?xml version="1.0" standalone="no"?>
<!DOCTYPE svg PUBLIC "-//W3C//DTD SVG 20010904//EN"
 "http://www.w3.org/TR/2001/REC-SVG-20010904/DTD/svg10.dtd">
<svg version="1.0" xmlns="http://www.w3.org/2000/svg"
 width="1278.000000pt" height="1280.000000pt" viewBox="0 0 1278.000000 1280.000000"
 preserveAspectRatio="xMidYMid meet">
<metadata>
Created by potrace 1.15, written by Peter Selinger 2001-2017
</metadata>
<g transform="translate(0.000000,1280.000000) scale(0.100000,-0.100000)"
fill="#000000" stroke="none">
<path d="M4289 12758 c-59 -224 -229 -841 -231 -842 -2 -1 -48 -12 -103 -25
-55 -13 -154 -38 -219 -58 l-120 -34 -322 322 c-300 300 -324 322 -346 312
-20 -9 -1009 -581 -1015 -587 -1 -1 51 -200 115 -441 l118 -439 -163 -163
c-90 -90 -168 -163 -173 -163 -6 0 -205 52 -442 115 -237 63 -432 114 -434
113 -9 -10 -594 -1022 -594 -1029 0 -4 145 -151 322 -327 l322 -319 -37 -124
c-20 -68 -46 -164 -58 -214 -32 -140 -16 -126 -190 -170 -85 -21 -280 -71
-434 -110 l-280 -72 0 -599 0 -599 220 -56 c121 -31 315 -81 430 -110 116 -29
213 -55 217 -58 4 -3 25 -76 47 -161 21 -85 50 -190 64 -233 l25 -77 -324
-317 c-178 -174 -324 -320 -324 -324 0 -8 577 -1007 590 -1022 4 -5 203 46
441 113 l434 122 173 -173 173 -173 -117 -426 c-64 -234 -119 -430 -121 -436
-2 -6 214 -137 484 -294 268 -155 502 -291 519 -301 l30 -18 314 322 c173 177
319 323 326 325 6 2 70 -15 140 -36 71 -22 173 -50 226 -63 65 -15 99 -28 103
-38 2 -9 50 -189 105 -401 56 -212 105 -402 111 -422 l10 -38 598 0 599 0 14
58 c9 31 59 228 113 438 l97 381 97 22 c53 12 158 40 235 63 l138 41 152 -154
c83 -85 226 -231 318 -326 l167 -171 518 299 c404 233 517 303 515 317 -2 9
-39 144 -83 300 -43 155 -79 285 -79 289 0 4 72 -116 161 -265 l160 -273 -34
-57 c-87 -144 -166 -329 -217 -508 l-32 -110 -291 -74 c-161 -40 -307 -78
-325 -82 l-32 -9 2 -347 3 -347 319 -81 c263 -66 321 -84 327 -100 4 -10 21
-66 39 -124 42 -140 107 -292 180 -423 l60 -108 -170 -286 -169 -287 230 -237
c126 -130 236 -242 243 -249 12 -9 69 20 302 158 l287 169 131 -68 c153 -79
272 -127 434 -173 l117 -34 80 -323 81 -324 349 0 349 0 81 324 80 323 116 33
c155 45 280 95 430 172 l126 65 292 -167 293 -167 35 33 c19 19 129 131 243
250 l209 216 -170 287 -169 288 35 59 c79 129 183 378 221 527 18 69 20 73 54
82 19 5 167 45 327 87 l293 78 0 347 0 348 -22 5 c-13 4 -160 43 -327 88
l-305 82 -28 100 c-51 177 -125 350 -224 520 l-23 40 169 290 169 290 -242
243 c-148 149 -248 241 -257 239 -8 -2 -140 -76 -294 -165 l-278 -160 -48 29
c-135 83 -520 239 -590 239 -14 0 -22 11 -30 38 -5 20 -46 168 -89 327 l-78
290 -346 3 -345 2 -11 -32 c-5 -18 -42 -152 -81 -298 -39 -146 -75 -278 -80
-295 -9 -27 -17 -32 -80 -47 -140 -35 -383 -138 -540 -228 l-55 -32 -282 166
c-155 91 -285 166 -290 166 -4 0 -115 -107 -245 -237 -131 -130 -239 -235
-242 -232 -3 2 -18 52 -34 109 l-29 105 173 171 173 171 178 -49 c564 -155
695 -190 698 -187 2 2 136 234 298 516 l295 512 -211 208 c-117 114 -263 258
-324 318 l-113 110 30 95 c17 52 46 155 65 229 19 74 37 136 39 139 3 3 200
57 438 121 l433 117 0 598 0 598 -430 115 c-236 64 -434 119 -438 122 -4 4
-25 73 -46 152 -21 79 -49 179 -62 222 l-23 78 322 322 322 322 -296 515
c-163 283 -298 516 -299 518 -1 1 -201 -52 -445 -118 l-443 -120 -165 165
-165 165 88 322 c48 178 102 377 120 443 19 66 33 120 32 121 -9 8 -1031 594
-1035 594 -4 0 -151 -144 -328 -321 l-321 -321 -73 22 c-40 12 -138 37 -218
56 -80 18 -148 37 -152 41 -4 5 -55 188 -114 408 -59 220 -112 417 -118 438
l-11 37 -598 0 -598 0 -12 -42z"/>
</g>
</svg>
